<?xml version="1.0" encoding="UTF-8" standalone="no"?>
<!-- Created with Inkscape (http://www.inkscape.org/) -->

<svg
   width="82.193138mm"
   height="34.860779mm"
   viewBox="0 0 82.193138 34.860779"
   version="1.1"
   id="svg1"
   xml:space="preserve"
   xmlns="http://www.w3.org/2000/svg"
   xmlns:svg="http://www.w3.org/2000/svg"><defs
     id="defs1" /><g
     id="layer1"
     transform="translate(-63.242821,-174.61252)"><path
       style="fill:#000080"
       d="m 140.82641,208.58151 c -1.12269,-0.49016 -2.46841,-1.14323 -2.99049,-1.45127 -4.07983,-2.40716 -7.89454,-3.81552 -10.76809,-3.9755 -4.25532,-0.23691 -4.77652,-1.08178 -1.57023,-2.54538 3.79617,-1.73287 4.0489,-2.39713 0.97343,-2.55855 -4.4746,-0.23485 -4.70023,-2.01922 -0.37513,-2.96681 1.45547,-0.31888 2.18889,-0.62934 2.64583,-1.11998 2.64437,-2.8394 8.77473,-6.44525 10.95766,-6.44525 2.71056,0 3.27227,1.10064 1.25263,2.45446 -1.75814,1.17853 -6.85165,8.40808 -6.23975,8.85647 0.24823,0.18191 0.73097,0.33073 1.07276,0.33073 1.57555,0 4.18488,2.21179 5.90244,5.00317 0.45685,0.74249 1.06155,1.51171 1.34378,1.70939 4.15443,2.90988 2.60787,4.80975 -2.20484,2.70852 z m -52.675086,0.44226 c -1.713941,-0.2579 -2.977123,-11.78035 -1.9409,-17.70445 0.992433,-5.67374 1.595338,-6.80251 3.536568,-6.62124 2.088571,0.19504 2.024175,0.14136 1.685382,1.40492 -0.841903,3.13994 -0.957318,11.08364 -0.176549,12.1514 1.040294,1.42269 2.038152,-2.24424 3.281416,-12.05855 0.205919,-1.62552 1.434601,-1.96989 2.954379,-0.82804 0.766543,0.57593 0.762447,0.48757 0.276476,5.96413 -0.338702,3.81693 -0.256869,12.59493 0.148487,15.92778 0.204531,1.68167 -4.574864,2.54504 -9.765259,1.76405 z m -8.061502,-0.80136 c -1.266634,-0.85551 -1.969554,-1.69541 -3.249989,-3.88333 -1.17882,-2.01429 -1.390631,-2.00888 -1.643706,0.042 -0.369131,2.99132 -0.510047,3.15504 -1.982489,2.30333 -3.711512,-2.14688 -8.935923,-6.47133 -9.82496,-8.13251 -1.1008,-2.05687 4.251861,-9.02285 8.574257,-11.15858 3.986348,-1.9697 3.906176,-2.03684 4.337652,3.63278 0.380891,5.00493 0.949889,5.95619 3.39767,5.68029 2.349137,-0.26478 2.377235,-2.11414 0.06722,-4.42416 -2.83432,-2.83432 -2.873262,-6.75365 -0.07938,-7.98951 1.325559,-0.58636 6.166641,-1.04233 6.160998,-0.58029 -0.0016,0.12897 -0.18398,0.8298 -0.405343,1.55741 -1.577571,5.18535 -2.100497,14.76125 -1.101706,20.1746 0.684616,3.71055 0.764162,3.50561 -1.360689,3.50561 -1.539477,0 -1.974423,-0.10953 -2.88953,-0.72761 z m 19.934018,-0.38424 c -0.108355,-0.34874 -0.230875,-1.96682 -0.687075,-9.07461 -0.458054,-7.13661 0.226866,-12.56771 1.584915,-12.56771 0.65993,0 0.78195,0.22765 1.06971,1.99573 0.73922,4.54194 2.8086,6.55233 3.52884,3.42823 0.79631,-3.45407 1.23855,-4.12186 2.42752,-3.66561 1.61655,0.62033 2.20068,19.111 0.63027,19.95145 -0.93161,0.49859 -1.4634,0.0469 -2.35655,-2.00157 -1.35317,-3.10354 -1.74937,-3.17122 -2.06524,-0.35279 -0.17532,1.56428 -0.21785,1.63889 -1.10836,1.94415 -1.69002,0.57932 -2.90763,0.71733 -3.02403,0.34273 z m 10.60062,-2.76154 c -0.61919,-4.51749 0.31416,-15.17661 1.32892,-15.17661 1.9821,0 8.82158,5.07309 8.82158,6.54329 0,0.65474 -0.93747,0.99733 -2.72911,0.99733 -2.1081,0 -2.54299,0.38435 -1.21307,1.07207 0.64502,0.33356 1.21581,0.40079 2.33198,0.27468 1.55983,-0.17624 2.66853,0.25594 2.66853,1.0402 0,0.60923 -0.78656,0.84005 -3.41569,1.00235 -2.75819,0.17027 -3.46733,0.50807 -2.84712,1.35626 0.33181,0.45378 0.4813,0.46343 2.1229,0.13714 2.37809,-0.47269 3.29052,0.65444 1.29055,1.59421 -5.89849,2.77166 -8.09666,3.07645 -8.35947,1.15908 z m -3.47554,-19.56762 c -2.31602,-0.96941 -6.71674,-2.16248 -9.319404,-2.52657 -4.089281,-0.57206 -4.474119,-1.50439 -1.131646,-2.74157 1.091406,-0.40397 2.780116,-1.2573 3.75268,-1.89628 2.21874,-1.4577 4.64569,-2.56465 7.13586,-3.25471 5.24626,-1.45382 7.87145,0.6326 4.15523,3.30243 -1.79031,1.28622 -2.41041,2.61783 -2.55581,5.48844 -0.0645,1.2733 -0.192,2.31007 -0.28334,2.30392 -0.0913,-0.006 -0.88045,-0.3102 -1.75357,-0.67566 z"
       id="path44486" /></g></svg>
